<svg width="172" height="27" viewBox="0 0 172 27" fill="none" xmlns="http://www.w3.org/2000/svg">
<path d="M26 13C26 20.1797 20.1797 26 13 26C5.8203 26 0 20.1797 0 13C0 5.8203 5.8203 0 13 0C20.1797 0 26 5.8203 26 13Z" fill="#9EE800"/>
<path fill-rule="evenodd" clip-rule="evenodd" d="M16.981 16.9812L20.2292 7.55781C20.4755 6.84315 19.7908 6.15845 19.0761 6.40479L9.65275 9.65292L6.40462 19.0763C6.15828 19.791 6.84298 20.4757 7.55764 20.2293L16.981 16.9812Z" fill="white"/>
<path d="M15 13.5C15 14.3284 14.3284 15 13.5 15C12.6716 15 12 14.3284 12 13.5C12 12.6716 12.6716 12 13.5 12C14.3284 12 15 12.6716 15 13.5Z" fill="#9EE800"/>
<path d="M36 6.66851H38.558L39.0801 8.82873H42.5256V11.4972H39.4586V17.6348C39.4586 18.8801 40.0111 19.5028 41.1161 19.5028H42.5256V22.1713H39.4455C37.1485 22.1713 36 20.9726 36 18.5751V6.66851Z" fill="white"/>
<path d="M44.3533 22.1713V4H47.8119V10.5315C48.8908 9.39632 50.2699 8.82873 51.9492 8.82873C55.1946 8.82873 56.8173 10.4722 56.8173 13.7591V22.1713H53.3587V13.7591C53.3587 12.2851 52.6061 11.5481 51.1008 11.5481C49.9784 11.5481 48.8821 11.9843 47.8119 12.8569V22.1713H44.3533Z" fill="white"/>
<path d="M65.3403 8.82873C69.4993 8.82873 71.5788 10.8958 71.5788 15.0298C71.5788 15.5805 71.5397 16.1311 71.4614 16.6818H62.3646C62.3646 18.5624 63.7829 19.5028 66.6193 19.5028C68.0028 19.5028 69.3862 19.3757 70.7696 19.1215V21.7901C69.5602 22.0442 68.0898 22.1713 66.3583 22.1713C61.3901 22.1713 58.906 19.8967 58.906 15.3475C58.906 11.0017 61.0508 8.82873 65.3403 8.82873ZM62.3646 14.3436H68.2116V14.242C68.2116 12.3952 67.2545 11.4718 65.3403 11.4718C63.5131 11.4718 62.5212 12.4291 62.3646 14.3436Z" fill="white"/>
<path d="M84.7616 8.82873C88.9206 8.82873 91.0002 10.8958 91.0002 15.0298C91.0002 15.5805 90.961 16.1311 90.8827 16.6818H81.786C81.786 18.5624 83.2042 19.5028 86.0407 19.5028C87.4241 19.5028 88.8075 19.3757 90.191 19.1215V21.7901C88.9816 22.0442 87.5111 22.1713 85.7796 22.1713C80.8115 22.1713 78.3274 19.8967 78.3274 15.3475C78.3274 11.0017 80.4721 8.82873 84.7616 8.82873ZM81.786 14.3436H87.6329V14.242C87.6329 12.3952 86.6758 11.4718 84.7616 11.4718C82.9345 11.4718 81.9426 12.4291 81.786 14.3436Z" fill="#9EE800"/>
<path d="M96.5605 15.5L91.4314 8.82873H95.2815L98.4791 12.9967L101.677 8.82873H105.527L100.411 15.5L105.527 22.1713H101.677L98.4791 18.0033L95.2815 22.1713H91.4314L96.5605 15.5Z" fill="#9EE800"/>
<path d="M110.082 18.6895C110.944 19.147 111.87 19.3757 112.862 19.3757C114.924 19.3757 115.955 17.9652 115.955 15.1442C115.955 12.7468 114.815 11.5481 112.536 11.5481C111.553 11.5481 110.735 11.6074 110.082 11.726V18.6895ZM106.624 9.37514C108.442 9.01087 110.365 8.82873 112.392 8.82873C117.047 8.82873 119.375 10.9424 119.375 15.1696C119.375 19.8374 117.208 22.1713 112.875 22.1713C111.953 22.1713 111.022 21.9595 110.082 21.5359V27H106.624V9.37514Z" fill="#9EE800"/>
<path d="M124.922 4V13.0856V22.1713H121.463V4H124.922Z" fill="#9EE800"/>
<path d="M130.469 15.4492C130.469 18.2363 131.579 19.6298 133.797 19.6298C136.016 19.6298 137.125 18.2363 137.125 15.4492C137.125 12.7298 136.016 11.3702 133.797 11.3702C131.579 11.3702 130.469 12.7298 130.469 15.4492ZM127.011 15.5C127.011 11.0271 129.273 8.79061 133.797 8.79061C138.322 8.79061 140.584 11.0271 140.584 15.5C140.584 19.9645 138.322 22.1967 133.797 22.1967C129.29 22.1967 127.028 19.9645 127.011 15.5Z" fill="#9EE800"/>
<path d="M142.66 22.1713V8.82873H145.335L145.766 10.5315C146.967 9.39632 148.237 8.82873 149.577 8.82873V11.5481C148.289 11.5481 147.136 12.0691 146.118 13.111V22.1713H142.66Z" fill="#9EE800"/>
<path d="M156.782 8.82873C160.941 8.82873 163.02 10.8958 163.02 15.0298C163.02 15.5805 162.981 16.1311 162.903 16.6818H153.806C153.806 18.5624 155.224 19.5028 158.061 19.5028C159.444 19.5028 160.828 19.3757 162.211 19.1215V21.7901C161.002 22.0442 159.531 22.1713 157.8 22.1713C152.832 22.1713 150.347 19.8967 150.347 15.3475C150.347 11.0017 152.492 8.82873 156.782 8.82873ZM153.806 14.3436H159.653V14.242C159.653 12.3952 158.696 11.4718 156.782 11.4718C154.955 11.4718 153.963 12.4291 153.806 14.3436Z" fill="#9EE800"/>
<path d="M165.083 22.1713V8.82873H167.758L168.189 10.5315C169.39 9.39632 170.66 8.82873 172 8.82873V11.5481C170.712 11.5481 169.559 12.0691 168.541 13.111V22.1713H165.083Z" fill="#9EE800"/>
</svg>
